<svg xmlns="http://www.w3.org/2000/svg" viewBox="0 0 424.3 423.9"><linearGradient id="a" gradientUnits="userSpaceOnUse" x1="43.193" y1="321.907" x2="314.716" y2="50.384" gradientTransform="matrix(1 0 0 -1 0 424)"><stop offset="0" stop-color="#8c3e97"/><stop offset="1" stop-color="#0091d1"/></linearGradient><path d="M185.7 304.5c-1.9-4.9-2.8-12.9-2.8-23.9V143.3c0-11 .9-18.9 2.7-23.8 1.8-4.8 5-9.3 9.5-13.5h-83.9c4.5 4.1 7.6 8.5 9.5 13.1 1.8 4.7 2.7 12.7 2.7 24.1v137.3c0 11-.9 19-2.7 23.9-1.8 4.9-5 9.5-9.5 13.7h83.9c-4.4-4.1-7.5-8.6-9.4-13.6z" fill="url(#a)"/><linearGradient id="b" gradientUnits="userSpaceOnUse" x1="103.229" y1="381.943" x2="374.752" y2="110.42" gradientTransform="matrix(1 0 0 -1 0 424)"><stop offset="0" stop-color="#8c3e97"/><stop offset="1" stop-color="#0091d1"/></linearGradient><path d="M178.5 203.3h9.7s38.8 4.1 42.2-37.5c3.4-41.7 28.4-59.7 47.1-59.7h17.3s-4.5 12.5-20.1 22.3-22 25-23.1 40.1c-1.1 15.1 9.9 22.4-11.5 41.7-9.4 6.4 1.7 11.7 1.7 11.7l6.4 1.6s1.1 3.6-.4 5.6-3.4 4-3.4 4-.1 4.1 7.5 6.1c-4.5 1.7-5.7 6.8-2.8 10.3 5.2.6 8.9 2.3 10.9 7.4 1.9 5.1 1.1 17.6 14.1 14.5s21.3-5.7 21.3-5.7 16.3 3.8 16.3 23.8c0 10.5-7.5 29.2-36.6 29.2-45 0-48.5-38.2-49.9-45-1.5-6.8-8-47.2-31.2-47.2h-12.4l-3.1-23.2z" fill="url(#b)"/></svg>