<svg xmlns="http://www.w3.org/2000/svg" xmlns:xlink="http://www.w3.org/1999/xlink"><symbol id="close-icon" viewBox="0 0 24 24">
<path d="M4.99997 5L19 19" stroke="#fff" stroke-width="3" stroke-linecap="round" stroke-linejoin="round"/>
<path d="M5.00002 19L19 5" stroke="#fff" stroke-width="3" stroke-linecap="round" stroke-linejoin="round"/>
</symbol><symbol id="instagram" viewBox="0 0 19 20">
<path fill-rule="evenodd" clip-rule="evenodd" d="M13.4484 0.418945C15.0546 0.418945 16.4695 0.954336 17.4638 1.98687C18.4581 2.98117 18.9935 4.35789 18.9935 5.96406V13.842C18.9935 15.4864 18.4581 16.9013 17.4256 17.8956C16.4313 18.8517 15.0546 19.3871 13.4102 19.3871H5.60875C4.04082 19.3871 2.6641 18.8899 1.63156 17.8956C0.560781 16.8631 0.0253906 15.4481 0.0253906 13.8037V5.96406C0.0253906 2.63699 2.24344 0.418945 5.57051 0.418945H13.4484ZM16.2018 16.6336C16.8902 15.9835 17.3109 15.0275 17.3109 13.842V5.96406C17.3109 4.85504 16.9284 3.89898 16.2783 3.21062C15.59 2.52227 14.6339 2.17809 13.4866 2.17809H5.60875C4.46148 2.17809 3.46719 2.52227 2.81707 3.17238C2.12871 3.86074 1.78453 4.8168 1.78453 5.96406V13.8037C1.78453 14.9892 2.12871 15.9453 2.81707 16.6336C3.50543 17.2837 4.46148 17.6279 5.60875 17.6279H13.4102C14.5574 17.6279 15.5135 17.2837 16.2018 16.6336ZM14.5954 5.96386C15.2079 5.96386 15.7044 5.46739 15.7044 4.85497C15.7044 4.24256 15.2079 3.74609 14.5954 3.74609C13.9829 3.74609 13.4863 4.24256 13.4863 4.85497C13.4863 5.46739 13.9829 5.96386 14.5954 5.96386ZM9.50928 4.97021C6.83232 4.97021 4.61426 7.15 4.61426 9.86518C4.61426 12.5804 6.79407 14.7601 9.50928 14.7601C12.2245 14.7601 14.4043 12.5421 14.4043 9.86518C14.4043 7.18825 12.1862 4.97021 9.50928 4.97021ZM9.50928 13.001C7.78838 13.001 6.37341 11.5861 6.37341 9.86518C6.37341 8.14429 7.78838 6.72934 9.50928 6.72934C11.2302 6.72934 12.6452 8.14429 12.6452 9.86518C12.6452 11.5861 11.2302 13.001 9.50928 13.001Z" fill="#CFBB85"/>
</symbol><symbol id="logo" viewBox="0 0 424.3 423.9">
<style type="text/css">
	.st0{fill:url(#SVGID_1_);}
	.st1{fill:url(#SVGID_2_);}
</style>
<g id="Layer_4">
	
		<linearGradient id="SVGID_1_" gradientUnits="userSpaceOnUse" x1="43.1932" y1="321.9067" x2="314.7159" y2="50.3842" gradientTransform="matrix(1 0 0 -1 0 424)">
		<stop offset="0" style="stop-color:#8C3E97"/>
		<stop offset="1" style="stop-color:#0091D1"/>
	</linearGradient>
	<path class="st0" d="M185.7,304.5c-1.9-4.9-2.8-12.9-2.8-23.9v-46v-8.4v-22.9v-60c0-11,0.9-18.9,2.7-23.8c1.8-4.8,5-9.3,9.5-13.5
		h-83.9c4.5,4.1,7.6,8.5,9.5,13.1c1.8,4.7,2.7,12.7,2.7,24.1v137.3c0,11-0.9,19-2.7,23.9c-1.8,4.9-5,9.5-9.5,13.7h83.9
		C190.7,314,187.6,309.5,185.7,304.5z"/>
</g>
<g id="Layer_6">
	
		<linearGradient id="SVGID_2_" gradientUnits="userSpaceOnUse" x1="103.2291" y1="381.943" x2="374.7519" y2="110.4203" gradientTransform="matrix(1 0 0 -1 0 424)">
		<stop offset="0" style="stop-color:#8C3E97"/>
		<stop offset="1" style="stop-color:#0091D1"/>
	</linearGradient>
	<path class="st1" d="M178.5,203.3h9.7c0,0,38.8,4.1,42.2-37.5c3.4-41.7,28.4-59.7,47.1-59.7c7.8,0,17.3,0,17.3,0
		s-4.5,12.5-20.1,22.3s-22,25-23.1,40.1c-1.1,15.1,9.9,22.4-11.5,41.7c-9.4,6.4,1.7,11.7,1.7,11.7l6.4,1.6c0,0,1.1,3.6-0.4,5.6
		s-3.4,4-3.4,4s-0.1,4.1,7.5,6.1c-4.5,1.7-5.7,6.8-2.8,10.3c5.2,0.6,8.9,2.3,10.9,7.4c1.9,5.1,1.1,17.6,14.1,14.5s21.3-5.7,21.3-5.7
		s16.3,3.8,16.3,23.8c0,10.5-7.5,29.2-36.6,29.2c-45,0-48.5-38.2-49.9-45c-1.5-6.8-8-47.2-31.2-47.2c-1.8,0-12.4,0-12.4,0
		L178.5,203.3z"/>
</g>
</symbol></svg>